<svg width="120" height="120" viewBox="0 0 120 120" fill="none" xmlns="http://www.w3.org/2000/svg">
<circle cx="60" cy="60" r="60" fill="white"/>
<path d="M39.1035 36.9668C40.6465 36.9668 42.1797 37.0742 43.7031 37.2891C45.2461 37.4844 46.7207 37.7285 48.127 38.0215C49.5527 38.2949 50.9004 38.5684 52.1699 38.8418C53.4395 39.1152 54.582 39.3105 55.5977 39.4277C55.3633 40.1309 55.2461 41.3711 55.2461 43.1484C55.2461 46.6055 55.7637 49.6035 56.7988 52.1426C56.6816 52.4941 56.3203 52.709 55.7148 52.7871L54.4551 50.0918C53.8301 48.7441 53.0781 47.416 52.1992 46.1074C51.3203 44.7793 50.2656 43.5977 49.0352 42.5625C47.8047 41.5078 46.3691 40.6582 44.7285 40.0137C43.1074 39.3691 41.2324 39.0469 39.1035 39.0469C37.2676 39.0469 35.6367 39.3496 34.2109 39.9551C32.7852 40.5605 31.5352 41.3809 30.4609 42.416C29.3867 43.4316 28.4785 44.623 27.7363 45.9902C26.9941 47.3379 26.3887 48.7734 25.9199 50.2969C25.4707 51.8203 25.1387 53.3828 24.9238 54.9844C24.7285 56.5859 24.6309 58.1387 24.6309 59.6426C24.6309 62.1426 24.9531 64.5352 25.5977 66.8203C26.2617 69.1055 27.2871 71.127 28.6738 72.8848C30.0605 74.623 31.8184 76.0098 33.9473 77.0449C36.0957 78.0801 38.6543 78.5977 41.623 78.5977C47.3066 78.5977 51.6035 76.8203 54.5137 73.2656C54.8262 73.2656 55.0801 73.3535 55.2754 73.5293C55.4902 73.7051 55.5977 73.9199 55.5977 74.1738C54.6602 75.5605 53.5176 76.7617 52.1699 77.7773C50.8418 78.793 49.4258 79.6328 47.9219 80.2969C46.418 80.9414 44.8945 81.4199 43.3516 81.7324C41.8281 82.0449 40.4121 82.2012 39.1035 82.2012C37.6777 82.2012 36.1348 82.0449 34.4746 81.7324C32.834 81.4395 31.1836 80.9414 29.5234 80.2383C27.8828 79.5352 26.3008 78.6172 24.7773 77.4844C23.2734 76.332 21.9355 74.9258 20.7637 73.2656C19.5918 71.5859 18.6543 69.623 17.9512 67.377C17.248 65.1309 16.8965 62.5527 16.8965 59.6426C16.8965 56.7129 17.248 54.125 17.9512 51.8789C18.6543 49.6133 19.5918 47.6406 20.7637 45.9609C21.9551 44.2812 23.3125 42.875 24.8359 41.7422C26.3789 40.5898 27.9707 39.6621 29.6113 38.959C31.252 38.2363 32.8926 37.7285 34.5332 37.4355C36.1738 37.123 37.6973 36.9668 39.1035 36.9668ZM63.0977 37.9336C65.2266 38.0117 67.8828 38.0703 71.0664 38.1094C74.25 38.1484 77.9902 38.168 82.2871 38.168C86.584 38.168 90.3242 38.1484 93.5078 38.1094C96.7109 38.0703 99.3867 38.0117 101.535 37.9336C101.652 38.7734 101.799 39.584 101.975 40.3652C102.15 41.127 102.443 41.9766 102.854 42.9141L103.732 44.9062L105.871 49.0664C105.734 49.3789 105.393 49.6426 104.846 49.8574C104.182 48.627 103.371 47.4551 102.414 46.3418C101.457 45.2285 100.236 44.2227 98.752 43.3242C97.2871 42.4258 95.4902 41.6738 93.3613 41.0684C91.252 40.4629 88.7031 40.0527 85.7148 39.8379C85.6172 42.2793 85.5391 45.043 85.4805 48.1289C85.4414 51.1953 85.4219 54.6133 85.4219 58.3828C85.4219 62.1719 85.4414 65.6094 85.4805 68.6953C85.5391 71.7812 85.6172 74.5449 85.7148 76.9863C85.7344 77.4551 85.9199 77.8555 86.2715 78.1875C86.623 78.5 87.1016 78.7637 87.707 78.9785C88.332 79.1934 89.0449 79.3691 89.8457 79.5059C90.666 79.623 91.5449 79.7207 92.4824 79.7988C92.5605 80.1309 92.5996 80.3945 92.5996 80.5898C92.5996 80.7656 92.5605 80.9609 92.4824 81.1758C89.2012 81.0586 85.8027 81 82.2871 81C78.791 81 75.3926 81.0586 72.0918 81.1758C72.0137 80.9609 71.9746 80.7656 71.9746 80.5898C71.9746 80.3945 72.0137 80.1309 72.0918 79.7988L73.498 79.6523C74.0059 79.5938 74.5723 79.5156 75.1973 79.418C75.8223 79.3008 76.3984 79.1445 76.9258 78.9492C77.4727 78.7539 77.9316 78.5098 78.3027 78.2168C78.6738 77.9238 78.8594 77.5625 78.8594 77.1328V76.9863C78.957 73.4121 79.0352 70.082 79.0938 66.9961C79.1523 63.9102 79.1816 61.0391 79.1816 58.3828C79.1816 55.7461 79.1523 52.8945 79.0938 49.8281C79.0352 46.7422 78.957 43.4121 78.8594 39.8379C76.0469 39.9941 73.5957 40.375 71.5059 40.9805C69.4355 41.5664 67.6387 42.3086 66.1152 43.207C64.5918 44.0859 63.3223 45.1016 62.3066 46.2539C61.291 47.3867 60.4512 48.5879 59.7871 49.8574C59.2402 49.6426 58.8984 49.3789 58.7617 49.0664L60.0801 46.5762L60.6953 45.3164C60.9492 44.7891 61.2031 44.252 61.457 43.7051C61.7109 43.1582 61.9453 42.5918 62.1602 42.0059C62.3945 41.4004 62.5898 40.7656 62.7461 40.1016C62.9023 39.418 63.0195 38.6953 63.0977 37.9336Z" fill="black"/>
</svg>
